<svg width="25" height="24" viewBox="0 0 25 24" fill="none" xmlns="http://www.w3.org/2000/svg">
<path d="M14.684 12C14.684 12.5192 14.53 13.0267 14.2416 13.4584C13.9531 13.8901 13.5432 14.2265 13.0635 14.4252C12.5838 14.6239 12.056 14.6758 11.5468 14.5746C11.0376 14.4733 10.5699 14.2233 10.2028 13.8562C9.83569 13.489 9.58569 13.0213 9.4844 12.5121C9.38311 12.0029 9.4351 11.4751 9.63378 10.9955C9.83246 10.5158 10.1689 10.1058 10.6006 9.81739C11.0323 9.52895 11.5398 9.375 12.059 9.375C12.7552 9.375 13.4228 9.65156 13.9151 10.1438C14.4074 10.6361 14.684 11.3038 14.684 12ZM4.55896 9.375C4.03979 9.375 3.53227 9.52895 3.10059 9.81739C2.66891 10.1058 2.33246 10.5158 2.13378 10.9955C1.9351 11.4751 1.88311 12.0029 1.9844 12.5121C2.08569 13.0213 2.33569 13.489 2.70281 13.8562C3.06992 14.2233 3.53765 14.4733 4.04685 14.5746C4.55605 14.6758 5.08385 14.6239 5.56351 14.4252C6.04316 14.2265 6.45313 13.8901 6.74157 13.4584C7.03001 13.0267 7.18396 12.5192 7.18396 12C7.18396 11.3038 6.9074 10.6361 6.41512 10.1438C5.92283 9.65156 5.25515 9.375 4.55896 9.375ZM19.559 9.375C19.0398 9.375 18.5323 9.52895 18.1006 9.81739C17.6689 10.1058 17.3325 10.5158 17.1338 10.9955C16.9351 11.4751 16.8831 12.0029 16.9844 12.5121C17.0857 13.0213 17.3357 13.489 17.7028 13.8562C18.0699 14.2233 18.5376 14.4733 19.0469 14.5746C19.556 14.6758 20.0838 14.6239 20.5635 14.4252C21.0432 14.2265 21.4531 13.8901 21.7416 13.4584C22.03 13.0267 22.184 12.5192 22.184 12C22.184 11.6553 22.1161 11.3139 21.9841 10.9955C21.8522 10.677 21.6589 10.3876 21.4151 10.1438C21.1714 9.90009 20.882 9.70673 20.5635 9.57482C20.245 9.4429 19.9037 9.375 19.559 9.375Z" fill="#363636"/>
</svg>
